<svg width="256" height="127" viewBox="0 0 256 127" fill="none" xmlns="http://www.w3.org/2000/svg">
<path d="M6 120.803L51.3448 77.2265C51.7318 76.8545 52.3435 76.8545 52.7306 77.2265L69.6337 93.4705C70.0208 93.8424 70.6325 93.8424 71.0195 93.4705L111.887 54.1962C112.275 53.8242 112.886 53.8242 113.273 54.1962L135.852 75.8947C136.239 76.2667 136.851 76.2667 137.238 75.8947L176.214 38.4386C176.601 38.0667 177.213 38.0667 177.6 38.4386L197.638 57.6954C198.032 58.0743 198.658 58.0662 199.042 57.6771L245.598 10.5505C245.632 10.5169 245.662 10.4809 245.691 10.4429L247.198 8.40733C247.308 8.2593 247.182 8.05305 247 8.08333V8.08333M247 8.08333L244.5 8.5L227.069 12.9822C227.023 12.994 226.978 13.0092 226.934 13.0276L222.5 14.8751C221.812 15.1616 221.668 16.0726 222.234 16.5574L224.5 18.5L238 32L239.019 33.0189C239.502 33.5016 240.315 33.3695 240.62 32.759L242.94 28.1194C242.98 28.0402 243.009 27.956 243.026 27.8691L247 8.08333Z" stroke="#40C431" stroke-width="16"/>
</svg>
